<svg width="16" height="16" viewBox="0 0 16 16" fill="none" xmlns="http://www.w3.org/2000/svg">
<circle cx="8.37144" cy="8.0572" r="3.93571" stroke="#524E4E" stroke-width="0.7"/>
<path d="M6.33155 8.09939C6.4526 8.01052 6.61987 8.03297 6.70536 8.14941L7.47051 9.19151L10.0713 7.28195C10.1921 7.1932 10.3597 7.2157 10.4452 7.33214C10.5307 7.44858 10.5019 7.61503 10.381 7.70378L7.56121 9.77415C7.44017 9.86302 7.27307 9.84045 7.18757 9.724L6.26751 8.4709C6.18201 8.35446 6.21051 8.18827 6.33155 8.09939Z" fill="#524E4E"/>
<line x1="8.35" y1="14.5371" x2="8.35" y2="12" stroke="#524E4E" stroke-width="0.7"/>
<circle cx="8.34285" cy="15.1429" r="0.732143" transform="rotate(-180 8.34285 15.1429)" stroke="#524E4E" stroke-width="0.25"/>
<line x1="8.35002" y1="1.6001" x2="8.35001" y2="4.0601" stroke="#524E4E" stroke-width="0.7"/>
<circle cx="8.32713" cy="0.857143" r="0.732143" stroke="#524E4E" stroke-width="0.25"/>
<line x1="14.3478" y1="11.6927" x2="12.0076" y2="10.1554" stroke="#524E4E" stroke-width="0.7"/>
<circle cx="14.8597" cy="12.0295" r="0.732143" transform="rotate(66.3 14.8597 12.0295)" stroke="#524E4E" stroke-width="0.25"/>
<line x1="2.80202" y1="3.81428" x2="5.08854" y2="5.43039" stroke="#524E4E" stroke-width="0.7"/>
<circle cx="2.30522" cy="3.39415" r="0.732143" transform="rotate(35.2526 2.30522 3.39415)" stroke="#524E4E" stroke-width="0.25"/>
<line x1="2.81302" y1="11.4541" x2="4.96025" y2="10.0973" stroke="#524E4E" stroke-width="0.7"/>
<circle cx="2.21371" cy="11.8291" r="0.732143" transform="rotate(-120 2.21371 11.8291)" stroke="#524E4E" stroke-width="0.25"/>
<line x1="13.8755" y1="4.79499" x2="11.4531" y2="6.19922" stroke="#524E4E" stroke-width="0.7"/>
<circle cx="14.3663" cy="4.42088" r="0.732143" transform="rotate(60 14.3663 4.42088)" stroke="#524E4E" stroke-width="0.25"/>
</svg>
