<svg width="30" height="48" viewBox="0 0 30 48" fill="none" xmlns="http://www.w3.org/2000/svg">
<path fill-rule="evenodd" clip-rule="evenodd" d="M4.39411 4.39486C7.32352 1.46545 11.1604 0 14.9928 0C18.8372 0 22.674 1.46545 25.6035 4.39486C31.4623 10.2522 31.4623 19.7499 25.6035 25.6057C25.6035 25.6057 14.9928 36.0004 14.9928 48C14.9928 36.0004 4.39411 25.6057 4.39411 25.6057C-1.4647 19.7484 -1.4647 10.2507 4.39411 4.39486Z" fill="#F7B924"/>
<path d="M5.18539 20.4998V11.9685H7.82211C8.71274 11.9685 9.38852 12.1677 9.84946 12.5662C10.3143 12.9607 10.5467 13.5408 10.5467 14.3064C10.5467 14.74 10.451 15.113 10.2596 15.4255C10.0682 15.738 9.80649 15.9666 9.47446 16.1111C9.85727 16.2205 10.1522 16.4412 10.3592 16.7732C10.5663 17.1013 10.6698 17.5076 10.6698 17.9919C10.6698 18.8201 10.4413 19.4451 9.98422 19.8669C9.5311 20.2888 8.87289 20.4998 8.00961 20.4998H5.18539ZM6.90805 16.7908V19.0701H8.00961C8.31821 19.0701 8.55258 18.9744 8.71274 18.783C8.87289 18.5916 8.95297 18.3201 8.95297 17.9685C8.95297 17.2029 8.67563 16.8103 8.12094 16.7908H6.90805ZM6.90805 15.5369H7.80453C8.48032 15.5369 8.81821 15.1873 8.81821 14.488C8.81821 14.1013 8.74008 13.824 8.58383 13.656C8.42758 13.488 8.17368 13.4041 7.82211 13.4041H6.90805V15.5369ZM17.9061 20.4998H16.1893V16.8494H13.6463V20.4998H11.9237V11.9685H13.6463V15.4197H16.1893V11.9685H17.9061V20.4998ZM24.8436 11.9685V17.8748C24.8358 18.7615 24.5916 19.4412 24.1112 19.9138C23.6307 20.3826 22.9413 20.6169 22.0428 20.6169C21.1288 20.6169 20.4295 20.3787 19.9452 19.9021C19.4647 19.4255 19.2245 18.7361 19.2245 17.8337V11.9685H20.9588V17.8396C20.9588 18.324 21.037 18.6697 21.1932 18.8767C21.3495 19.0837 21.6327 19.1873 22.0428 19.1873C22.453 19.1873 22.7342 19.0857 22.8866 18.8826C23.0389 18.6755 23.117 18.3376 23.1209 17.8689V11.9685H24.8436Z" fill="white"/>
</svg>
