<svg width="16" height="16" viewBox="0 0 16 16" fill="none" xmlns="http://www.w3.org/2000/svg">
<path d="M6.98295 5.77048H5.36167C5.24985 5.77048 5.15922 5.67985 5.15922 5.56803C5.15922 5.45621 5.24985 5.36558 5.36167 5.36558H6.98295C7.09477 5.36558 7.1854 5.45621 7.1854 5.56803C7.1854 5.67985 7.09477 5.77048 6.98295 5.77048Z" stroke="#524E4E" stroke-width="0.3"/>
<path d="M6.98295 9.08347H5.36167C5.24985 9.08347 5.15922 8.99283 5.15922 8.88102C5.15922 8.7692 5.24985 8.67856 5.36167 8.67856H6.98295C7.09477 8.67856 7.1854 8.7692 7.1854 8.88102C7.1854 8.99283 7.09477 9.08347 6.98295 9.08347Z" stroke="#524E4E" stroke-width="0.3"/>
<mask id="path-3-inside-1" fill="white">
<path d="M15.079 11.2663C15.079 11.2586 15.0785 11.2509 15.0778 11.2432C15.0775 11.2392 15.0771 11.2352 15.0766 11.2312C15.0758 11.2244 15.0747 11.2176 15.0735 11.2108C15.0727 11.2066 15.0721 11.2025 15.0712 11.1985C15.0697 11.1914 15.0677 11.1846 15.0659 11.1777C15.0648 11.1742 15.0641 11.1706 15.063 11.1671C15.0599 11.1575 15.0564 11.148 15.0526 11.1387C15.0507 11.1341 15.0485 11.1298 15.0464 11.1253C15.044 11.1201 15.0416 11.1148 15.0389 11.1098C15.0365 11.1052 15.034 11.1008 15.0313 11.0964C15.0296 11.0933 15.028 11.0901 15.0261 11.0871L13.5841 8.76775C13.52 8.66374 13.407 8.60001 13.2848 8.59903H11.4239V2.12448C11.4239 1.67686 11.1371 1.03857 9.75961 0.540028C8.79742 0.191769 7.52626 0 6.17852 0C4.83078 0 3.55416 0.191769 2.59186 0.540028C1.21437 1.0384 0.920776 1.67665 0.920776 2.12448V12.2203C0.920776 12.6682 1.2149 13.3066 2.59228 13.805C3.55448 14.1531 4.82909 14.3448 6.17722 14.3448C6.96844 14.3476 7.75818 14.2766 8.53625 14.1331C8.57936 14.1248 8.62278 14.116 8.66549 14.1073L10.346 15.8893C10.3505 15.894 10.3555 15.8982 10.3601 15.9027C10.3631 15.9056 10.3661 15.9086 10.3692 15.9114C10.3804 15.9213 10.3921 15.9304 10.4045 15.9387C10.4075 15.9408 10.4107 15.9426 10.4138 15.9446C10.4242 15.9512 10.4348 15.9572 10.4458 15.9626C10.4494 15.9644 10.4529 15.9662 10.4564 15.9678C10.4702 15.9742 10.4843 15.9796 10.4987 15.9841C10.5011 15.9849 10.5037 15.9853 10.5061 15.986C10.5184 15.9896 10.5309 15.9924 10.5435 15.9945C10.5481 15.9953 10.5526 15.996 10.5572 15.9966C10.5711 15.9985 10.5852 15.9995 10.5993 15.9997C10.6005 15.9997 10.6016 16 10.6028 16C10.6146 16 10.6263 15.9993 10.638 15.9981C10.6398 15.9981 10.6416 15.9975 10.6432 15.9974C10.6528 15.9962 10.6624 15.9948 10.672 15.9929C10.6759 15.9921 10.6797 15.991 10.6836 15.9901C10.6906 15.9884 10.698 15.9866 10.7052 15.9845C10.7101 15.9829 10.715 15.9811 10.7199 15.9793C10.7248 15.9776 10.729 15.9765 10.7334 15.9747C10.7349 15.9741 10.7362 15.9734 10.7377 15.9728C10.7432 15.9705 10.7486 15.9678 10.754 15.9652C10.7594 15.9627 10.7651 15.96 10.7704 15.9571C10.7749 15.9547 10.7792 15.952 10.7836 15.9494C10.7896 15.9459 10.7956 15.9423 10.8012 15.9383C10.8047 15.9359 10.8083 15.9332 10.8118 15.9306C10.8179 15.9261 10.824 15.9215 10.8298 15.9165C10.8329 15.9139 10.8358 15.9111 10.8388 15.9084C10.8446 15.9032 10.8503 15.8979 10.8557 15.8923C10.8567 15.8912 10.8579 15.8903 10.859 15.8892L14.9833 11.5151C14.9868 11.5116 14.9897 11.5078 14.9929 11.5041C14.9955 11.5012 14.9981 11.4983 15.0006 11.4952C15.0057 11.489 15.0104 11.4825 15.015 11.476C15.0165 11.4738 15.0182 11.4718 15.0196 11.4696C15.0255 11.4609 15.0309 11.452 15.0358 11.4429C15.0377 11.4394 15.0394 11.4361 15.041 11.4327C15.044 11.4268 15.047 11.4208 15.0496 11.4147C15.0515 11.4104 15.0531 11.4059 15.055 11.4014C15.057 11.3961 15.0591 11.3907 15.0609 11.3852C15.0625 11.3805 15.064 11.3758 15.0653 11.3711C15.067 11.3653 15.0684 11.3595 15.0698 11.3537C15.0709 11.3492 15.072 11.3448 15.0728 11.3402C15.0744 11.332 15.0756 11.3237 15.0766 11.3155C15.0769 11.3133 15.0773 11.3111 15.0776 11.3088C15.0786 11.298 15.0791 11.2872 15.0792 11.2764C15.0792 11.2754 15.0792 11.2745 15.0792 11.2735C15.0793 11.271 15.079 11.2687 15.079 11.2663ZM7.2953 11.6301H8.61449L9.58649 14.0602L7.2953 11.6301ZM11.6023 9.30393L11.9414 10.9252H9.28267L9.60372 9.30393H11.6023ZM11.8416 11.6301L10.6023 14.7015L9.37371 11.6301H11.8416ZM8.56381 10.9252H7.11312L8.11637 9.30393H8.88497L8.56381 10.9252ZM12.6016 11.6301H13.9101L11.6226 14.0562L12.6016 11.6301ZM14.0922 10.9252H12.6616L12.3226 9.30393H13.0892L14.0922 10.9252ZM2.83734 1.20271C3.72468 0.881589 4.91167 0.704729 6.17972 0.704729C7.44777 0.704729 8.63476 0.881589 9.52209 1.20271C10.4081 1.52344 10.7237 1.889 10.7237 2.1243C10.7237 2.3596 10.4081 2.7253 9.52209 3.04593C8.63476 3.36705 7.44774 3.54391 6.17972 3.54391C4.9117 3.54391 3.72468 3.36705 2.83734 3.04593C1.95138 2.7252 1.63573 2.35963 1.63573 2.1243C1.63573 1.88897 1.95138 1.52333 2.83734 1.20271ZM1.62568 3.2347C1.92752 3.4313 2.25217 3.59043 2.59242 3.70868C3.55462 4.05694 4.82947 4.24874 6.17722 4.24874C7.52496 4.24874 8.79594 4.05694 9.75834 3.70868C10.0967 3.59057 10.4193 3.43141 10.719 3.2347V5.48183C10.719 5.71731 10.4057 6.08312 9.51991 6.40364C8.63282 6.72462 7.44693 6.90141 6.17866 6.90141C4.9104 6.90141 3.71876 6.72462 2.83167 6.40364C1.94574 6.08319 1.62568 5.71738 1.62568 5.4819V3.2347ZM1.62568 6.59262C1.92749 6.78915 2.25206 6.94828 2.59228 7.06649C3.55448 7.41458 4.82909 7.60631 6.17722 7.60631C7.52535 7.60631 8.79643 7.41458 9.75848 7.06649C10.0968 6.94842 10.4194 6.78933 10.719 6.59269V8.59903H7.92048C7.79836 8.60001 7.68529 8.66377 7.62125 8.76778L6.70121 10.2474C6.52851 10.2543 6.3539 10.2584 6.17958 10.2584C4.91117 10.2584 3.71907 10.082 2.83198 9.76099C1.94641 9.44044 1.62568 9.07484 1.62568 8.83944V6.59269V6.59262ZM6.17972 13.6399C4.91131 13.6399 3.71921 13.4632 2.83213 13.1422C1.94641 12.8217 1.62568 12.4558 1.62568 12.2203V9.95026C1.92749 10.1468 2.25206 10.3059 2.59228 10.4241C3.55448 10.7722 4.82909 10.9639 6.17722 10.9639C6.20273 10.9639 6.22956 10.9636 6.25511 10.9634L6.17873 11.0871C6.17686 11.0902 6.1756 11.0933 6.1738 11.0964C6.17122 11.1009 6.16876 11.1053 6.16636 11.1098C6.16368 11.1149 6.16139 11.1202 6.15896 11.1254C6.15692 11.1298 6.15477 11.1341 6.1529 11.1387C6.14898 11.1481 6.14546 11.1576 6.14232 11.1671C6.1412 11.1707 6.14046 11.1742 6.13943 11.1777C6.1375 11.1848 6.13563 11.1915 6.13411 11.1985C6.13323 11.2026 6.13256 11.2067 6.13182 11.2108C6.13062 11.2176 6.12953 11.2244 6.12872 11.2313C6.12823 11.2353 6.12784 11.2392 6.12748 11.2433C6.12682 11.251 6.12646 11.2587 6.12632 11.2664C6.12632 11.2687 6.12597 11.271 6.12597 11.2734V11.2763C6.12597 11.2871 6.12653 11.2979 6.12759 11.3086C6.12784 11.3109 6.1283 11.3131 6.12854 11.3154C6.12953 11.3237 6.13076 11.3319 6.13235 11.3401C6.13319 11.3446 6.13432 11.3491 6.13534 11.3536C6.13672 11.3594 6.13816 11.3652 6.13982 11.3709C6.1412 11.3757 6.14264 11.3804 6.14423 11.385C6.14606 11.3905 6.1481 11.3959 6.15018 11.4013C6.15195 11.4058 6.15371 11.4103 6.15554 11.4146C6.15818 11.4207 6.16118 11.4266 6.16418 11.4325C6.1659 11.4361 6.16749 11.4396 6.16932 11.4428C6.17429 11.4519 6.17968 11.4608 6.1855 11.4694C6.18698 11.4717 6.18867 11.4737 6.19022 11.4759C6.19477 11.4824 6.19949 11.4889 6.20457 11.4951C6.20703 11.4981 6.20968 11.501 6.21225 11.5039C6.21546 11.5076 6.21845 11.5114 6.22184 11.515L6.62962 11.9473H5.36168C5.16702 11.9473 5.00922 12.1051 5.00922 12.2998C5.00922 12.4944 5.16702 12.6522 5.36168 12.6522H6.98296C7.06755 12.6523 7.14931 12.6217 7.21318 12.5663L8.08966 13.4956C7.45768 13.593 6.81914 13.6412 6.17972 13.6399Z"/>
</mask>
<path d="M15.079 11.2663C15.079 11.2586 15.0785 11.2509 15.0778 11.2432C15.0775 11.2392 15.0771 11.2352 15.0766 11.2312C15.0758 11.2244 15.0747 11.2176 15.0735 11.2108C15.0727 11.2066 15.0721 11.2025 15.0712 11.1985C15.0697 11.1914 15.0677 11.1846 15.0659 11.1777C15.0648 11.1742 15.0641 11.1706 15.063 11.1671C15.0599 11.1575 15.0564 11.148 15.0526 11.1387C15.0507 11.1341 15.0485 11.1298 15.0464 11.1253C15.044 11.1201 15.0416 11.1148 15.0389 11.1098C15.0365 11.1052 15.034 11.1008 15.0313 11.0964C15.0296 11.0933 15.028 11.0901 15.0261 11.0871L13.5841 8.76775C13.52 8.66374 13.407 8.60001 13.2848 8.59903H11.4239V2.12448C11.4239 1.67686 11.1371 1.03857 9.75961 0.540028C8.79742 0.191769 7.52626 0 6.17852 0C4.83078 0 3.55416 0.191769 2.59186 0.540028C1.21437 1.0384 0.920776 1.67665 0.920776 2.12448V12.2203C0.920776 12.6682 1.2149 13.3066 2.59228 13.805C3.55448 14.1531 4.82909 14.3448 6.17722 14.3448C6.96844 14.3476 7.75818 14.2766 8.53625 14.1331C8.57936 14.1248 8.62278 14.116 8.66549 14.1073L10.346 15.8893C10.3505 15.894 10.3555 15.8982 10.3601 15.9027C10.3631 15.9056 10.3661 15.9086 10.3692 15.9114C10.3804 15.9213 10.3921 15.9304 10.4045 15.9387C10.4075 15.9408 10.4107 15.9426 10.4138 15.9446C10.4242 15.9512 10.4348 15.9572 10.4458 15.9626C10.4494 15.9644 10.4529 15.9662 10.4564 15.9678C10.4702 15.9742 10.4843 15.9796 10.4987 15.9841C10.5011 15.9849 10.5037 15.9853 10.5061 15.986C10.5184 15.9896 10.5309 15.9924 10.5435 15.9945C10.5481 15.9953 10.5526 15.996 10.5572 15.9966C10.5711 15.9985 10.5852 15.9995 10.5993 15.9997C10.6005 15.9997 10.6016 16 10.6028 16C10.6146 16 10.6263 15.9993 10.638 15.9981C10.6398 15.9981 10.6416 15.9975 10.6432 15.9974C10.6528 15.9962 10.6624 15.9948 10.672 15.9929C10.6759 15.9921 10.6797 15.991 10.6836 15.9901C10.6906 15.9884 10.698 15.9866 10.7052 15.9845C10.7101 15.9829 10.715 15.9811 10.7199 15.9793C10.7248 15.9776 10.729 15.9765 10.7334 15.9747C10.7349 15.9741 10.7362 15.9734 10.7377 15.9728C10.7432 15.9705 10.7486 15.9678 10.754 15.9652C10.7594 15.9627 10.7651 15.96 10.7704 15.9571C10.7749 15.9547 10.7792 15.952 10.7836 15.9494C10.7896 15.9459 10.7956 15.9423 10.8012 15.9383C10.8047 15.9359 10.8083 15.9332 10.8118 15.9306C10.8179 15.9261 10.824 15.9215 10.8298 15.9165C10.8329 15.9139 10.8358 15.9111 10.8388 15.9084C10.8446 15.9032 10.8503 15.8979 10.8557 15.8923C10.8567 15.8912 10.8579 15.8903 10.859 15.8892L14.9833 11.5151C14.9868 11.5116 14.9897 11.5078 14.9929 11.5041C14.9955 11.5012 14.9981 11.4983 15.0006 11.4952C15.0057 11.489 15.0104 11.4825 15.015 11.476C15.0165 11.4738 15.0182 11.4718 15.0196 11.4696C15.0255 11.4609 15.0309 11.452 15.0358 11.4429C15.0377 11.4394 15.0394 11.4361 15.041 11.4327C15.044 11.4268 15.047 11.4208 15.0496 11.4147C15.0515 11.4104 15.0531 11.4059 15.055 11.4014C15.057 11.3961 15.0591 11.3907 15.0609 11.3852C15.0625 11.3805 15.064 11.3758 15.0653 11.3711C15.067 11.3653 15.0684 11.3595 15.0698 11.3537C15.0709 11.3492 15.072 11.3448 15.0728 11.3402C15.0744 11.332 15.0756 11.3237 15.0766 11.3155C15.0769 11.3133 15.0773 11.3111 15.0776 11.3088C15.0786 11.298 15.0791 11.2872 15.0792 11.2764C15.0792 11.2754 15.0792 11.2745 15.0792 11.2735C15.0793 11.271 15.079 11.2687 15.079 11.2663ZM7.2953 11.6301H8.61449L9.58649 14.0602L7.2953 11.6301ZM11.6023 9.30393L11.9414 10.9252H9.28267L9.60372 9.30393H11.6023ZM11.8416 11.6301L10.6023 14.7015L9.37371 11.6301H11.8416ZM8.56381 10.9252H7.11312L8.11637 9.30393H8.88497L8.56381 10.9252ZM12.6016 11.6301H13.9101L11.6226 14.0562L12.6016 11.6301ZM14.0922 10.9252H12.6616L12.3226 9.30393H13.0892L14.0922 10.9252ZM2.83734 1.20271C3.72468 0.881589 4.91167 0.704729 6.17972 0.704729C7.44777 0.704729 8.63476 0.881589 9.52209 1.20271C10.4081 1.52344 10.7237 1.889 10.7237 2.1243C10.7237 2.3596 10.4081 2.7253 9.52209 3.04593C8.63476 3.36705 7.44774 3.54391 6.17972 3.54391C4.9117 3.54391 3.72468 3.36705 2.83734 3.04593C1.95138 2.7252 1.63573 2.35963 1.63573 2.1243C1.63573 1.88897 1.95138 1.52333 2.83734 1.20271ZM1.62568 3.2347C1.92752 3.4313 2.25217 3.59043 2.59242 3.70868C3.55462 4.05694 4.82947 4.24874 6.17722 4.24874C7.52496 4.24874 8.79594 4.05694 9.75834 3.70868C10.0967 3.59057 10.4193 3.43141 10.719 3.2347V5.48183C10.719 5.71731 10.4057 6.08312 9.51991 6.40364C8.63282 6.72462 7.44693 6.90141 6.17866 6.90141C4.9104 6.90141 3.71876 6.72462 2.83167 6.40364C1.94574 6.08319 1.62568 5.71738 1.62568 5.4819V3.2347ZM1.62568 6.59262C1.92749 6.78915 2.25206 6.94828 2.59228 7.06649C3.55448 7.41458 4.82909 7.60631 6.17722 7.60631C7.52535 7.60631 8.79643 7.41458 9.75848 7.06649C10.0968 6.94842 10.4194 6.78933 10.719 6.59269V8.59903H7.92048C7.79836 8.60001 7.68529 8.66377 7.62125 8.76778L6.70121 10.2474C6.52851 10.2543 6.3539 10.2584 6.17958 10.2584C4.91117 10.2584 3.71907 10.082 2.83198 9.76099C1.94641 9.44044 1.62568 9.07484 1.62568 8.83944V6.59269V6.59262ZM6.17972 13.6399C4.91131 13.6399 3.71921 13.4632 2.83213 13.1422C1.94641 12.8217 1.62568 12.4558 1.62568 12.2203V9.95026C1.92749 10.1468 2.25206 10.3059 2.59228 10.4241C3.55448 10.7722 4.82909 10.9639 6.17722 10.9639C6.20273 10.9639 6.22956 10.9636 6.25511 10.9634L6.17873 11.0871C6.17686 11.0902 6.1756 11.0933 6.1738 11.0964C6.17122 11.1009 6.16876 11.1053 6.16636 11.1098C6.16368 11.1149 6.16139 11.1202 6.15896 11.1254C6.15692 11.1298 6.15477 11.1341 6.1529 11.1387C6.14898 11.1481 6.14546 11.1576 6.14232 11.1671C6.1412 11.1707 6.14046 11.1742 6.13943 11.1777C6.1375 11.1848 6.13563 11.1915 6.13411 11.1985C6.13323 11.2026 6.13256 11.2067 6.13182 11.2108C6.13062 11.2176 6.12953 11.2244 6.12872 11.2313C6.12823 11.2353 6.12784 11.2392 6.12748 11.2433C6.12682 11.251 6.12646 11.2587 6.12632 11.2664C6.12632 11.2687 6.12597 11.271 6.12597 11.2734V11.2763C6.12597 11.2871 6.12653 11.2979 6.12759 11.3086C6.12784 11.3109 6.1283 11.3131 6.12854 11.3154C6.12953 11.3237 6.13076 11.3319 6.13235 11.3401C6.13319 11.3446 6.13432 11.3491 6.13534 11.3536C6.13672 11.3594 6.13816 11.3652 6.13982 11.3709C6.1412 11.3757 6.14264 11.3804 6.14423 11.385C6.14606 11.3905 6.1481 11.3959 6.15018 11.4013C6.15195 11.4058 6.15371 11.4103 6.15554 11.4146C6.15818 11.4207 6.16118 11.4266 6.16418 11.4325C6.1659 11.4361 6.16749 11.4396 6.16932 11.4428C6.17429 11.4519 6.17968 11.4608 6.1855 11.4694C6.18698 11.4717 6.18867 11.4737 6.19022 11.4759C6.19477 11.4824 6.19949 11.4889 6.20457 11.4951C6.20703 11.4981 6.20968 11.501 6.21225 11.5039C6.21546 11.5076 6.21845 11.5114 6.22184 11.515L6.62962 11.9473H5.36168C5.16702 11.9473 5.00922 12.1051 5.00922 12.2998C5.00922 12.4944 5.16702 12.6522 5.36168 12.6522H6.98296C7.06755 12.6523 7.14931 12.6217 7.21318 12.5663L8.08966 13.4956C7.45768 13.593 6.81914 13.6412 6.17972 13.6399Z" stroke="#524E4E" stroke-width="0.6" mask="url(#path-3-inside-1)"/>
</svg>
