<svg width="26" height="26" viewBox="0 0 26 26" fill="none" xmlns="http://www.w3.org/2000/svg">
<path d="M18.9216 13.8286L17.5741 15.174L16.2627 13.8625" stroke="#D92550" stroke-linecap="round" stroke-linejoin="round"/>
<path d="M17.5932 14.5V10.2458C17.5887 9.90711 17.451 9.5838 17.21 9.34588C16.9689 9.10797 16.6438 8.97458 16.305 8.97461H9.69487C9.35616 8.97458 9.03106 9.10797 8.78997 9.34588C8.54887 9.5838 8.4112 9.90711 8.40674 10.2458V15.7543C8.4112 16.093 8.54887 16.4163 8.78997 16.6542C9.03106 16.8921 9.35616 17.0255 9.69487 17.0255H14.5" stroke="#D92550" stroke-linecap="round" stroke-linejoin="round"/>
<path d="M13 25C19.6274 25 25 19.6274 25 13C25 6.37258 19.6274 1 13 1C6.37258 1 1 6.37258 1 13C1 19.6274 6.37258 25 13 25Z" stroke="#D92550" stroke-miterlimit="10"/>
</svg>
