<svg width="16" height="16" viewBox="0 0 16 16" fill="none" xmlns="http://www.w3.org/2000/svg">
<g clip-path="url(#clip0)">
<path d="M9.66668 14.0001H7.00001C6.08134 14.0001 5.33334 13.2521 5.33334 12.3334V11.0001C5.33334 10.8161 5.48268 10.6667 5.66668 10.6667C5.85068 10.6667 6.00001 10.8161 6.00001 11.0001V12.3334C6.00001 12.8847 6.44868 13.3334 7.00001 13.3334H9.66668C9.85068 13.3334 10 13.4827 10 13.6667C10 13.8507 9.85068 14.0001 9.66668 14.0001Z" fill="#524E4E"/>
<path d="M7 7.33341H0.333333C0.149333 7.33341 0 7.18408 0 7.00008C0 6.81608 0.149333 6.66675 0.333333 6.66675H7C7.184 6.66675 7.33333 6.81608 7.33333 7.00008C7.33333 7.18408 7.184 7.33341 7 7.33341Z" fill="#524E4E"/>
<path d="M10.6667 16C9.93134 16 9.33334 15.402 9.33334 14.6667V2.66667C9.33334 2.09333 9.70134 1.586 10.2487 1.40333L14.2487 0.07C14.3753 0.0246667 14.5187 0 14.6667 0C15.402 0 16 0.598 16 1.33333V13.3333C16 13.906 15.6327 14.414 15.0853 14.596L11.0853 15.9293C10.9567 15.9753 10.8133 16 10.6667 16ZM14.6667 0.666667C14.5973 0.666667 14.528 0.678667 14.4667 0.7L10.4593 2.036C10.184 2.12733 10 2.38067 10 2.66667V14.6667C10 15.034 10.2993 15.3333 10.6667 15.3333C10.736 15.3333 10.8053 15.3213 10.868 15.2993L14.8747 13.964C15.1487 13.872 15.3333 13.6187 15.3333 13.3333V1.33333C15.3333 0.966 15.034 0.666667 14.6667 0.666667Z" fill="#524E4E"/>
<path d="M5.66668 3.33333C5.48268 3.33333 5.33334 3.184 5.33334 3V1.66667C5.33334 0.748 6.08134 0 7.00001 0H14.6667C14.8507 0 15 0.149333 15 0.333333C15 0.517333 14.8507 0.666667 14.6667 0.666667H7.00001C6.44868 0.666667 6.00001 1.11533 6.00001 1.66667V3C6.00001 3.184 5.85068 3.33333 5.66668 3.33333Z" fill="#524E4E"/>
<path d="M4.33332 9.99999C4.24798 9.99999 4.16265 9.96733 4.09732 9.90266C3.96732 9.77266 3.96732 9.56133 4.09732 9.43132L6.52865 6.99999L4.09732 4.56932C3.96732 4.43932 3.96732 4.22799 4.09732 4.09799C4.22732 3.96799 4.43865 3.96799 4.56865 4.09799L7.23532 6.76466C7.36532 6.89466 7.36532 7.10599 7.23532 7.23599L4.56865 9.90266C4.50398 9.96733 4.41865 9.99999 4.33332 9.99999Z" fill="#524E4E"/>
<rect x="10.5" y="6.65625" width="0.625" height="1.875" rx="0.3125" fill="#524E4E"/>
</g>
<defs>
<clipPath id="clip0">
<rect width="16" height="16" fill="white"/>
</clipPath>
</defs>
</svg>
