<svg width="8" height="14" viewBox="0 0 8 14" fill="none" xmlns="http://www.w3.org/2000/svg">
<path d="M3.4465 2.6884C4.18888 2.6884 4.7907 2.08658 4.7907 1.3442C4.7907 0.601818 4.18888 0 3.4465 0C2.70412 0 2.1023 0.601818 2.1023 1.3442C2.1023 2.08658 2.70412 2.6884 3.4465 2.6884Z" fill="#0AA3FF"/>
<path d="M7.14525 6.0147C6.0383 5.37393 5.13004 4.50839 4.3655 3.49017C3.88508 2.81456 2.61493 2.84983 2.09881 3.46892C1.31367 4.2328 0.647485 5.02013 0.119094 5.8079C-0.0969068 6.13059 -0.0110323 6.56719 0.311435 6.78319C0.431703 6.8638 0.567306 6.90236 0.702032 6.90236C0.928548 6.90236 1.15112 6.79305 1.2865 6.59063C1.5185 6.24516 1.7816 5.89859 2.07296 5.55356C2.06178 6.28371 2.09837 7.60119 2.11677 8.19333C2.1229 8.39049 2.078 8.58327 1.98643 8.7583C1.26175 10.1421 0.798203 11.4515 0.327646 13.0533C0.212416 13.4444 0.436523 13.8547 0.827339 13.9697C0.915842 13.9958 1.00522 14.0045 1.09153 13.998C1.38903 13.9752 1.65498 13.7725 1.74392 13.4698C2.17811 11.9928 2.59762 10.7969 3.25198 9.53073C3.28528 9.53205 3.31857 9.53205 3.35231 9.53051C3.77007 10.777 4.18805 12.0242 4.60647 13.2707C4.91032 14.1791 6.32002 13.7073 6.0153 12.7986C5.5581 11.4357 5.10157 10.0736 4.64591 8.71098C4.6194 8.63278 4.55521 8.32652 4.54623 8.22662C4.47087 7.38716 4.44349 6.55032 4.45159 5.71239C5.09302 6.32687 5.80433 6.85986 6.59451 7.31771C7.3825 7.77513 7.92272 6.46532 7.14525 6.0147Z" fill="#0AA3FF"/>
</svg>
