<svg width="30" height="48" viewBox="0 0 30 48" fill="none" xmlns="http://www.w3.org/2000/svg">
<path fill-rule="evenodd" clip-rule="evenodd" d="M4.39411 4.39486C7.32352 1.46545 11.1604 0 14.9928 0C18.8372 0 22.674 1.46545 25.6035 4.39486C31.4623 10.2522 31.4623 19.7499 25.6035 25.6057C25.6035 25.6057 14.9928 36.0004 14.9928 48C14.9928 36.0004 4.39411 25.6057 4.39411 25.6057C-1.4647 19.7484 -1.4647 10.2507 4.39411 4.39486Z" fill="#30B1FF"/>
<path d="M9.2108 17.0193H6.53307V20.4998H4.81041V11.9685H9.53307V13.4041H6.53307V15.5896H9.2108V17.0193ZM16.0604 17.3298L16.869 11.9685H18.5741L17.0565 20.4998H15.328L14.3319 15.4724L13.3475 20.4998H11.6131L10.0897 11.9685H11.8065L12.6092 17.324L13.6112 11.9685H15.0585L16.0604 17.3298ZM25.2889 17.658C25.246 18.6306 24.9725 19.3669 24.4686 19.8669C23.9647 20.3669 23.2538 20.6169 22.3358 20.6169C21.371 20.6169 20.6307 20.3005 20.1151 19.6677C19.6034 19.031 19.3475 18.1248 19.3475 16.949V15.5134C19.3475 14.3416 19.6131 13.4392 20.1444 12.8064C20.6756 12.1697 21.4139 11.8513 22.3592 11.8513C23.2889 11.8513 23.994 12.1111 24.4745 12.6306C24.9588 13.1501 25.2342 13.8962 25.3006 14.8689H23.5721C23.5565 14.2673 23.4628 13.8533 23.2909 13.6267C23.1229 13.3962 22.8124 13.281 22.3592 13.281C21.8983 13.281 21.5721 13.4431 21.3807 13.7673C21.1893 14.0876 21.0878 14.6169 21.076 15.3552V16.9666C21.076 17.8142 21.1698 18.3962 21.3573 18.7126C21.5487 19.0291 21.8749 19.1873 22.3358 19.1873C22.7889 19.1873 23.1014 19.0779 23.2733 18.8591C23.4452 18.6365 23.5428 18.2361 23.5663 17.658H25.2889Z" fill="white"/>
</svg>
