<svg width="113" height="45" viewBox="0 0 113 45" fill="none" xmlns="http://www.w3.org/2000/svg">
<path d="M52.2076 21.511L54.2933 22.8168L53.2505 23.5989L62.1192 28.2918L70.4643 23.5989H74.8986L61.8585 31.1618L49.0791 23.5989L52.2076 21.511Z" fill="#FF6939" fill-opacity="0.7"/>
<path d="M53.5111 17.6003L55.5991 18.9039L54.554 19.686L62.1191 23.8597L68.8999 19.9468H73.332L61.8584 26.4668L50.3826 19.686L53.5111 17.6003Z" fill="#FF6939"/>
<path d="M53.5652 9.67333L61.5956 17.7037C68.3764 7.27073 80.1871 0 80.1871 0L62.117 22.2932L51.7402 14.0021L53.5652 9.67333Z" fill="#0DAF00"/>
<path d="M0 23.1023L1.61821 20.8615C2.7622 22.0819 4.55572 23.1517 6.86842 23.1517C9.25754 23.1517 10.2037 21.9808 10.2037 20.8862C10.2037 17.4026 0.523673 19.5669 0.523673 13.4447C0.523673 10.7072 2.93751 8.59229 6.57175 8.59229C9.1609 8.59229 11.2511 9.41263 12.7929 10.9072L11.1252 13.0716C9.83066 11.777 8.06411 11.1792 6.32228 11.1792C4.60517 11.1792 3.51063 11.9995 3.51063 13.2446C3.51063 16.3305 13.166 14.4134 13.166 20.612C13.166 23.3742 11.2241 25.7386 6.74481 25.7386C3.68369 25.7409 1.46763 24.6711 0 23.1023Z" fill="#FF6939"/>
<path d="M15.8518 18.8972V8.8418H18.7893V18.7961C18.7893 21.4347 20.2569 23.1518 23.0461 23.1518C25.8083 23.1518 27.276 21.4347 27.276 18.7961V8.8418H30.2135V18.8725C30.2135 23.0034 27.8491 25.7409 23.0461 25.7409C18.2162 25.7409 15.8518 22.9787 15.8518 18.8972Z" fill="#FF6939"/>
<path d="M43.2287 25.442L39.545 19.2456H36.6569V25.442H33.7441V8.8418H41.0351C44.321 8.8418 46.4606 10.9814 46.4606 14.0426C46.4606 17.0048 44.5188 18.596 42.5275 18.9197L46.5842 25.4397H43.2287V25.442ZM43.4782 14.0426C43.4782 12.4491 42.2825 11.404 40.6418 11.404H36.6592V16.6812H40.6418C42.2825 16.6812 43.4782 15.6361 43.4782 14.0426Z" fill="#FF6939"/>
<path d="M77.9058 25.442V8.8418H89.2782V11.4062H80.8163V15.7125H89.1029V18.2769H80.8163V22.8821H89.2782V25.4465H77.9058V25.442Z" fill="#FF6939"/>
<path d="M98.6302 25.442V18.5488L92.1843 8.8418H95.5197L100.1 15.9597L104.629 8.8418H107.962L101.541 18.5488V25.442H98.6302Z" fill="#FF6939"/>
<path d="M83.0139 39.0372H79.1418L78.2722 41.4493H77.0154L80.5447 32.2072H81.6111L85.1467 41.4493H83.8962L83.0139 39.0372ZM79.51 38.0343H82.6521L81.0779 33.7115L79.51 38.0343ZM92.783 32.2072V38.4913C92.7787 39.3631 92.5037 40.0761 91.9578 40.6305C91.4161 41.1849 90.6798 41.4959 89.7488 41.5636L89.425 41.5763C88.4137 41.5763 87.6075 41.3033 87.0066 40.7574C86.4057 40.2115 86.101 39.4604 86.0925 38.504V32.2072H87.2986V38.4659C87.2986 39.1346 87.4827 39.6551 87.8508 40.0275C88.219 40.3956 88.7437 40.5797 89.425 40.5797C90.1148 40.5797 90.6417 40.3956 91.0056 40.0275C91.3738 39.6593 91.5579 39.1409 91.5579 38.4723V32.2072H92.783ZM101.092 33.2101H98.1213V41.4493H96.9089V33.2101H93.9446V32.2072H101.092V33.2101ZM109.395 37.1266C109.395 38.0322 109.242 38.8235 108.938 39.5006C108.633 40.1735 108.201 40.6876 107.643 41.0431C107.084 41.3986 106.433 41.5763 105.688 41.5763C104.96 41.5763 104.315 41.3986 103.752 41.0431C103.189 40.6834 102.751 40.1735 102.438 39.5133C102.129 38.8489 101.97 38.0809 101.962 37.2091V36.5426C101.962 35.6539 102.116 34.8689 102.425 34.1876C102.734 33.5063 103.17 32.9858 103.733 32.6261C104.3 32.2622 104.947 32.0802 105.675 32.0802C106.416 32.0802 107.067 32.2601 107.63 32.6198C108.197 32.9752 108.633 33.4936 108.938 34.1749C109.242 34.852 109.395 35.6412 109.395 36.5426V37.1266ZM108.182 36.5299C108.182 35.4339 107.962 34.5939 107.522 34.0099C107.082 33.4217 106.466 33.1276 105.675 33.1276C104.905 33.1276 104.298 33.4217 103.853 34.0099C103.413 34.5939 103.187 35.4064 103.174 36.4474V37.1266C103.174 38.1888 103.396 39.0245 103.841 39.6339C104.289 40.2391 104.905 40.5416 105.688 40.5416C106.475 40.5416 107.084 40.256 107.516 39.6847C107.948 39.1092 108.17 38.2861 108.182 37.2155V36.5299Z" fill="#666666"/>
</svg>
