<svg width="16" height="16" viewBox="0 0 16 16" fill="none" xmlns="http://www.w3.org/2000/svg">
<path d="M6.13334 12.7998H1.33334C1.18615 12.7998 1.06668 12.9193 1.06668 13.0665C1.06668 13.2137 1.18615 13.3331 1.33334 13.3331H6.13334C6.28052 13.3331 6.39999 13.2137 6.39999 13.0665C6.39999 12.9193 6.28052 12.7998 6.13334 12.7998Z" fill="#524E4E"/>
<path d="M0.799997 10.1332H2.93334C3.08053 10.1332 3.2 10.0137 3.2 9.86651C3.2 9.71932 3.08053 9.59985 2.93334 9.59985H0.799997C0.652809 9.59985 0.53334 9.71932 0.53334 9.86651C0.53334 10.0137 0.652809 10.1332 0.799997 10.1332Z" fill="#524E4E"/>
<path d="M4.8 11.4666C4.8 11.3194 4.68053 11.2 4.53334 11.2H0.266656C0.119469 11.2 0 11.3194 0 11.4666C0 11.6138 0.119469 11.7333 0.266656 11.7333H4.53331C4.68053 11.7333 4.8 11.6138 4.8 11.4666Z" fill="#524E4E"/>
<path d="M13.6 11.7332H12C11.8528 11.7332 11.7333 11.8527 11.7333 11.9999C11.7333 12.1471 11.8528 12.2666 12 12.2666H13.6C14.5728 12.2666 15.3251 12.9383 15.4472 13.8666H11.0437L2.5104 5.33324L6.53571 1.30793C6.75677 2.0098 7.26477 3.37512 8.07812 4.18846C8.9893 5.09993 10.5706 5.28581 11.2 5.32365V7.46659H10.5704C10.4779 7.30793 10.3077 7.19993 10.1112 7.19993C9.81708 7.19993 9.57787 7.43912 9.57787 7.73327C9.57787 8.0274 9.81705 8.26662 10.1112 8.26662C10.3077 8.26662 10.4779 8.15862 10.5704 7.99996H11.2V9.59996H10.5704C10.4779 9.44131 10.3077 9.33331 10.1112 9.33331C9.81708 9.33331 9.57787 9.57249 9.57787 9.86665C9.57787 10.1608 9.81705 10.4 10.1112 10.4C10.3077 10.4 10.4779 10.292 10.5704 10.1333H11.2V10.4C11.2 10.4706 11.228 10.5386 11.2781 10.5885L11.8115 11.1219C11.9157 11.2261 12.0843 11.2261 12.1885 11.1219C12.2928 11.0176 12.2928 10.8491 12.1885 10.7448L11.7333 10.2896V5.06659C11.7333 4.9194 11.6139 4.79993 11.4667 4.79993C11.4464 4.79993 9.43255 4.78874 8.45521 3.8114C7.45415 2.81034 6.9304 0.75568 6.92534 0.735117C6.90187 0.642055 6.8304 0.568461 6.73787 0.542836C6.6448 0.517773 6.54587 0.543648 6.47815 0.611367L1.94506 5.14446C1.94506 5.14446 1.94478 5.14446 1.94478 5.14474C1.94453 5.14474 1.94453 5.14502 1.94453 5.14502L1.58025 5.50955C1.24771 5.84184 1.25759 6.43462 1.60106 6.77809L9.94477 15.1218C9.97996 15.157 10.3042 15.4666 10.8125 15.4666H15.2C15.6485 15.4666 16 15.1151 16 14.6666V14.1333C16 12.7874 14.9459 11.7332 13.6 11.7332ZM15.4666 14.6666C15.4666 14.8186 15.352 14.9332 15.2 14.9332H10.8125C10.5216 14.9332 10.3221 14.7447 10.3219 14.7447L1.97815 6.40096C1.84056 6.26337 1.83043 6.01324 1.95734 5.88656L2.13334 5.71027L10.7448 14.3217C10.7947 14.3719 10.8627 14.3999 10.9333 14.3999H15.4667V14.6666H15.4666Z" fill="#524E4E"/>
<path d="M8.53334 7.20001V10.4C8.53334 10.5472 8.65281 10.6667 8.8 10.6667C8.94718 10.6667 9.06665 10.5472 9.06665 10.4V7.20001C9.06665 7.05282 8.94718 6.93335 8.8 6.93335C8.65281 6.93335 8.53334 7.05279 8.53334 7.20001Z" fill="#524E4E"/>
<path d="M10.3973 6.34291C10.5277 6.34291 10.6419 6.24719 10.6608 6.11409C10.6819 5.9685 10.5805 5.83328 10.4347 5.81222C8.65415 5.5565 7.13362 4.42769 6.3675 2.79303C6.30509 2.65969 6.14668 2.60263 6.01284 2.66475C5.8795 2.72741 5.82218 2.8861 5.88456 3.01941C6.72721 4.81728 8.40003 6.05888 10.359 6.34022C10.372 6.34209 10.3845 6.34291 10.3973 6.34291Z" fill="#524E4E"/>
</svg>
