<svg width="30" height="48" viewBox="0 0 30 48" fill="none" xmlns="http://www.w3.org/2000/svg">
<path fill-rule="evenodd" clip-rule="evenodd" d="M4.39411 4.39486C7.32352 1.46545 11.1604 0 14.9928 0C18.8372 0 22.674 1.46545 25.6035 4.39486C31.4623 10.2522 31.4623 19.7499 25.6035 25.6057C25.6035 25.6057 14.9928 36.0004 14.9928 48C14.9928 36.0004 4.39411 25.6057 4.39411 25.6057C-1.4647 19.7484 -1.4647 10.2507 4.39411 4.39486Z" fill="#676A6C"/>
<path d="M6.68542 11.9685L8.29675 18.1384L9.90222 11.9685H12.1522V20.4998H10.4237V18.1912L10.5819 14.6345L8.87683 20.4998H7.70496L5.99988 14.6345L6.15808 18.1912V20.4998H4.43542V11.9685H6.68542ZM17.1444 18.2615C17.1444 17.9138 17.0546 17.6521 16.8749 17.4763C16.6991 17.2966 16.3768 17.1111 15.9081 16.9197C15.0526 16.5955 14.4374 16.2166 14.0624 15.783C13.6874 15.3455 13.4999 14.8298 13.4999 14.2361C13.4999 13.5173 13.7538 12.9412 14.2616 12.5076C14.7733 12.0701 15.4218 11.8513 16.2069 11.8513C16.7303 11.8513 17.1971 11.9626 17.6073 12.1853C18.0175 12.4041 18.3319 12.7146 18.5507 13.1169C18.7733 13.5193 18.8846 13.9763 18.8846 14.488H17.1678C17.1678 14.0896 17.0819 13.7869 16.91 13.5798C16.7421 13.3689 16.4979 13.2634 16.1776 13.2634C15.8768 13.2634 15.6425 13.3533 15.4745 13.533C15.3065 13.7087 15.2225 13.947 15.2225 14.2478C15.2225 14.4822 15.3163 14.6951 15.5038 14.8865C15.6913 15.074 16.0233 15.2693 16.4999 15.4724C17.3319 15.7732 17.9354 16.1423 18.3104 16.5798C18.6893 17.0173 18.8788 17.574 18.8788 18.2498C18.8788 18.9919 18.6425 19.572 18.1698 19.99C17.6971 20.408 17.0546 20.6169 16.2421 20.6169C15.6913 20.6169 15.1893 20.5037 14.7362 20.2771C14.2831 20.0505 13.9276 19.7263 13.6698 19.3044C13.4159 18.8826 13.2889 18.3845 13.2889 17.8103H15.0175C15.0175 18.3025 15.1132 18.6599 15.3046 18.8826C15.496 19.1052 15.8085 19.2166 16.2421 19.2166C16.8436 19.2166 17.1444 18.8982 17.1444 18.2615ZM25.5702 11.9685V17.8748C25.5624 18.7615 25.3182 19.4412 24.8378 19.9138C24.3573 20.3826 23.6678 20.6169 22.7694 20.6169C21.8553 20.6169 21.1561 20.3787 20.6718 19.9021C20.1913 19.4255 19.951 18.7361 19.951 17.8337V11.9685H21.6854V17.8396C21.6854 18.324 21.7635 18.6697 21.9198 18.8767C22.076 19.0837 22.3593 19.1873 22.7694 19.1873C23.1796 19.1873 23.4608 19.0857 23.6132 18.8826C23.7655 18.6755 23.8436 18.3376 23.8475 17.8689V11.9685H25.5702Z" fill="white"/>
</svg>
