<svg width="28" height="36" viewBox="0 0 28 36" fill="none" xmlns="http://www.w3.org/2000/svg">
<path d="M27.0003 2.4C27.0002 2.4 27.0001 2.4 27 2.4H19.2V0.6C19.2001 0.268725 18.9316 7.50157e-05 18.6003 1.57085e-08C18.6002 1.57085e-08 18.6001 1.57085e-08 18.6 1.57085e-08H9C8.66873 -7.49843e-05 8.40007 0.268425 8.4 0.5997C8.4 0.599775 8.4 0.599925 8.4 0.6V2.4H0.6C0.268725 2.39992 7.50157e-05 2.66843 1.57085e-08 2.9997C1.57085e-08 2.99977 1.57085e-08 2.99993 1.57085e-08 3V35.4C-7.49843e-05 35.7313 0.268425 35.9999 0.5997 36C0.599775 36 0.599925 36 0.6 36H27C27.3313 36.0001 27.5999 35.7316 27.6 35.4003C27.6 35.4002 27.6 35.4001 27.6 35.4V3C27.6001 2.66873 27.3316 2.40008 27.0003 2.4ZM9.6 1.2H18V4.8H9.6V1.2ZM26.4 34.8H1.2V3.6H8.4V5.4C8.39993 5.73128 8.66843 5.99993 8.9997 6C8.99978 6 8.99993 6 9 6H18.6C18.9313 6.00008 19.1999 5.73158 19.2 5.4003C19.2 5.40023 19.2 5.40008 19.2 5.4V3.6H26.4V34.8Z" fill="#FF6939"/>
<path d="M15.6 27.6H2.40002V28.8H15.6V27.6Z" fill="#FF6939"/>
<path d="M25.2 27.6H16.8V28.8H25.2V27.6Z" fill="#FF6939"/>
<path d="M25.2 30H2.40002V31.2H25.2V30Z" fill="#FF6939"/>
<path d="M12 32.4H2.40002V33.6H12V32.4Z" fill="#FF6939"/>
<path d="M25.2 32.4H13.2V33.6H25.2V32.4Z" fill="#FF6939"/>
<path d="M6.60032 17.4C6.60025 17.4 6.6001 17.4 6.60002 17.4H3.00002C2.66875 17.3999 2.4001 17.6684 2.40002 17.9997C2.40002 17.9998 2.40002 17.9999 2.40002 18V25.8C2.39995 26.1313 2.66845 26.4 2.99972 26.4C2.9998 26.4 2.99995 26.4 3.00002 26.4H6.60002C6.9313 26.4001 7.19995 26.1316 7.20002 25.8003C7.20002 25.8003 7.20002 25.8001 7.20002 25.8V18C7.2001 17.6687 6.9316 17.4001 6.60032 17.4ZM6.00002 25.2H3.60002V18.6H6.00002V25.2Z" fill="#FF6939"/>
<path d="M12.6003 15C12.6002 15 12.6001 15 12.6 15H9.00002C8.66875 14.9999 8.4001 15.2684 8.40002 15.5997C8.40002 15.5998 8.40002 15.5999 8.40002 15.6V25.8C8.39995 26.1313 8.66845 26.3999 8.99972 26.4C8.9998 26.4 8.99995 26.4 9.00002 26.4H12.6C12.9313 26.4001 13.1999 26.1316 13.2 25.8003C13.2 25.8002 13.2 25.8001 13.2 25.8V15.6C13.2001 15.2687 12.9316 15.0001 12.6003 15ZM12 25.2H9.60002V16.2H12V25.2Z" fill="#FF6939"/>
<path d="M18.6003 12.6C18.6002 12.6 18.6001 12.6 18.6 12.6H15C14.6687 12.5999 14.4001 12.8684 14.4 13.1997C14.4 13.1998 14.4 13.1999 14.4 13.2V25.8C14.3999 26.1313 14.6684 26.3999 14.9997 26.4C14.9998 26.4 14.9999 26.4 15 26.4H18.6C18.9313 26.4001 19.1999 26.1316 19.2 25.8003C19.2 25.8002 19.2 25.8001 19.2 25.8V13.2C19.2001 12.8687 18.9316 12.6001 18.6003 12.6ZM18 25.2H15.6V13.8H18V25.2Z" fill="#FF6939"/>
<path d="M24.6003 10.2C24.6002 10.2 24.6001 10.2 24.6 10.2H21C20.6687 10.1999 20.4001 10.4684 20.4 10.7997C20.4 10.7997 20.4 10.7999 20.4 10.8V25.8C20.3999 26.1312 20.6684 26.3999 20.9997 26.4C20.9998 26.4 20.9999 26.4 21 26.4H24.6C24.9313 26.4 25.1999 26.1315 25.2 25.8003C25.2 25.8002 25.2 25.8 25.2 25.8V10.8C25.2001 10.4687 24.9316 10.2 24.6003 10.2ZM24 25.2H21.6V11.4H24V25.2Z" fill="#FF6939"/>
<path d="M24.4822 6.01172L18.4822 7.21172C18.4054 7.22709 18.3324 7.25739 18.2672 7.30082L13.0183 10.8H7.79998C7.68755 10.8 7.57738 10.8317 7.48213 10.8914L2.68213 13.8914L3.3179 14.9087L7.97195 12H13.2C13.3184 11.9999 13.4342 11.9649 13.5328 11.8992L18.8341 8.36484L24.7178 7.18824L24.4822 6.01172Z" fill="#FF6939"/>
</svg>
