<svg width="30" height="48" viewBox="0 0 30 48" fill="none" xmlns="http://www.w3.org/2000/svg">
<path fill-rule="evenodd" clip-rule="evenodd" d="M4.39411 4.39486C7.32352 1.46545 11.1604 0 14.9928 0C18.8372 0 22.674 1.46545 25.6034 4.39486C31.4623 10.2522 31.4623 19.7499 25.6034 25.6057C25.6034 25.6057 14.9928 36.0004 14.9928 48C14.9928 36.0004 4.39411 25.6057 4.39411 25.6057C-1.4647 19.7484 -1.4647 10.2507 4.39411 4.39486Z" fill="#FF4560"/>
<path d="M7.76941 17.3826H6.91394V20.4998H5.19128V11.9685H7.93933C8.80261 11.9685 9.46863 12.1931 9.93738 12.6423C10.41 13.0876 10.6464 13.7224 10.6464 14.5466C10.6464 15.6794 10.2343 16.4724 9.41003 16.9255L10.9042 20.4177V20.4998H9.05261L7.76941 17.3826ZM6.91394 15.947H7.89246C8.23621 15.947 8.49402 15.8337 8.66589 15.6072C8.83777 15.3767 8.92371 15.0701 8.92371 14.6873C8.92371 13.8318 8.58972 13.4041 7.92175 13.4041H6.91394V15.947ZM17.8124 20.4998H16.0956V16.8494H13.5526V20.4998H11.83V11.9685H13.5526V15.4197H16.0956V11.9685H17.8124V20.4998ZM24.9843 17.658C24.9413 18.6306 24.6678 19.3669 24.1639 19.8669C23.66 20.3669 22.9491 20.6169 22.0311 20.6169C21.0663 20.6169 20.326 20.3005 19.8104 19.6677C19.2987 19.031 19.0428 18.1248 19.0428 16.949V15.5134C19.0428 14.3416 19.3085 13.4392 19.8397 12.8064C20.371 12.1697 21.1093 11.8513 22.0546 11.8513C22.9843 11.8513 23.6893 12.1111 24.1698 12.6306C24.6542 13.1501 24.9296 13.8962 24.996 14.8689H23.2675C23.2518 14.2673 23.1581 13.8533 22.9862 13.6267C22.8182 13.3962 22.5077 13.281 22.0546 13.281C21.5936 13.281 21.2675 13.4431 21.076 13.7673C20.8846 14.0876 20.7831 14.6169 20.7714 15.3552V16.9666C20.7714 17.8142 20.8651 18.3962 21.0526 18.7126C21.244 19.0291 21.5702 19.1873 22.0311 19.1873C22.4843 19.1873 22.7968 19.0779 22.9686 18.8591C23.1405 18.6365 23.2382 18.2361 23.2616 17.658H24.9843Z" fill="white"/>
</svg>
