<svg width="30" height="48" viewBox="0 0 30 48" fill="none" xmlns="http://www.w3.org/2000/svg">
<path fill-rule="evenodd" clip-rule="evenodd" d="M4.39411 4.39486C7.32352 1.46545 11.1604 0 14.9928 0C18.8372 0 22.674 1.46545 25.6035 4.39486C31.4623 10.2522 31.4623 19.7499 25.6035 25.6057C25.6035 25.6057 14.9928 36.0004 14.9928 48C14.9928 36.0004 4.39411 25.6057 4.39411 25.6057C-1.4647 19.7484 -1.4647 10.2507 4.39411 4.39486Z" fill="#FF4560"/>
<path d="M7.76938 17.3826H6.91391V20.4998H5.19125V11.9685H7.9393C8.80258 11.9685 9.4686 12.1931 9.93735 12.6423C10.41 13.0876 10.6463 13.7224 10.6463 14.5466C10.6463 15.6794 10.2342 16.4724 9.41 16.9255L10.9041 20.4177V20.4998H9.05258L7.76938 17.3826ZM6.91391 15.947H7.89243C8.23618 15.947 8.49399 15.8337 8.66586 15.6072C8.83774 15.3767 8.92368 15.0701 8.92368 14.6873C8.92368 13.8318 8.58969 13.4041 7.92172 13.4041H6.91391V15.947ZM17.8123 20.4998H16.0956V16.8494H13.5526V20.4998H11.8299V11.9685H13.5526V15.4197H16.0956V11.9685H17.8123V20.4998ZM22.8045 18.2615C22.8045 17.9138 22.7147 17.6521 22.535 17.4763C22.3592 17.2966 22.037 17.1111 21.5682 16.9197C20.7127 16.5955 20.0975 16.2166 19.7225 15.783C19.3475 15.3455 19.16 14.8298 19.16 14.2361C19.16 13.5173 19.4139 12.9412 19.9217 12.5076C20.4334 12.0701 21.0819 11.8513 21.867 11.8513C22.3905 11.8513 22.8573 11.9626 23.2674 12.1853C23.6776 12.4041 23.992 12.7146 24.2108 13.1169C24.4334 13.5193 24.5448 13.9763 24.5448 14.488H22.828C22.828 14.0896 22.742 13.7869 22.5702 13.5798C22.4022 13.3689 22.1581 13.2634 21.8377 13.2634C21.537 13.2634 21.3026 13.3533 21.1346 13.533C20.9666 13.7087 20.8827 13.947 20.8827 14.2478C20.8827 14.4822 20.9764 14.6951 21.1639 14.8865C21.3514 15.074 21.6834 15.2693 22.16 15.4724C22.992 15.7732 23.5956 16.1423 23.9706 16.5798C24.3495 17.0173 24.5389 17.574 24.5389 18.2498C24.5389 18.9919 24.3026 19.572 23.8299 19.99C23.3573 20.408 22.7147 20.6169 21.9022 20.6169C21.3514 20.6169 20.8495 20.5037 20.3963 20.2771C19.9432 20.0505 19.5877 19.7263 19.3299 19.3044C19.076 18.8826 18.9491 18.3845 18.9491 17.8103H20.6776C20.6776 18.3025 20.7733 18.6599 20.9647 18.8826C21.1561 19.1052 21.4686 19.2166 21.9022 19.2166C22.5038 19.2166 22.8045 18.8982 22.8045 18.2615Z" fill="white"/>
</svg>
