<svg width="29" height="36" viewBox="0 0 29 36" fill="none" xmlns="http://www.w3.org/2000/svg">
<path d="M24.6609 1.69443H20.3294V0H7.87535V1.69443H3.54388C1.58982 1.69443 0 3.28416 0 5.23832V32.4561C0 34.4102 1.58972 36 3.54388 36H24.6609C26.6149 36 28.2047 34.4103 28.2047 32.4561V5.23822C28.2047 3.28416 26.6149 1.69443 24.6609 1.69443ZM9.34053 1.46518H18.8642V3.38877H9.34053V1.46518ZM26.7396 32.456C26.7396 33.6022 25.8071 34.5347 24.6609 34.5347H3.54388C2.39772 34.5347 1.46518 33.6023 1.46518 32.456V5.23822C1.46518 4.09206 2.39762 3.15952 3.54388 3.15952H7.87535V4.85395H20.3294V3.15962H24.6609C25.807 3.15962 26.7396 4.09206 26.7396 5.23832V32.456Z" fill="#FF6939"/>
<path d="M20.4707 16.5427L19.7088 17.7001C19.6004 17.8648 19.4359 17.8839 19.3701 17.8845C19.3026 17.8846 19.1396 17.8688 19.0283 17.7061L19.0071 17.6752C18.6214 17.1116 17.9848 16.8093 17.3044 16.8654C16.6239 16.922 16.046 17.3256 15.7587 17.9451L15.3518 18.8224C15.242 19.0594 15.0286 19.0662 14.9422 19.058C14.8555 19.0499 14.6472 19.0038 14.583 18.7507L13.6973 15.2595C13.4825 14.4126 12.7533 13.8456 11.8807 13.8456C11.8772 13.8456 11.8738 13.8456 11.8703 13.8456C10.9931 13.8501 10.2647 14.4259 10.0579 15.2783L9.2591 18.5703C9.19639 18.8288 8.98434 18.8743 8.89613 18.8819C8.80812 18.8893 8.59118 18.881 8.4851 18.637L7.69761 16.826C7.39989 16.141 6.72493 15.6985 5.97817 15.6985H3.86646V17.1637H5.97817C6.14139 17.1637 6.28889 17.2604 6.35394 17.4102L7.14143 19.2212C7.46797 19.9722 8.20564 20.4117 9.02204 20.3416C9.83795 20.2712 10.4899 19.7115 10.6829 18.9157L11.4817 15.6237C11.5499 15.3426 11.7814 15.3111 11.8778 15.3106C11.9779 15.311 12.206 15.3392 12.2771 15.6196L13.1626 19.1109C13.3603 19.8902 14.0054 20.4421 14.8061 20.5167C14.867 20.5225 14.9275 20.5252 14.9875 20.5252C15.7163 20.5252 16.3685 20.1127 16.6809 19.4388L17.0879 18.5614C17.1784 18.3663 17.3542 18.3315 17.4256 18.3254C17.4967 18.32 17.6762 18.3248 17.7977 18.5024L17.8189 18.5334C18.1692 19.0453 18.7466 19.3496 19.3661 19.3495C19.3718 19.3495 19.3775 19.3495 19.383 19.3495C20.0089 19.3439 20.5882 19.0284 20.9323 18.5055L21.6943 17.3481C21.7703 17.2327 21.8983 17.1637 22.0365 17.1637H24.3381V15.6985H22.0365C21.404 15.6987 20.8185 16.0142 20.4707 16.5427Z" fill="#FF6939"/>
<path d="M12.1387 26.5469H3.86646V28.0121H12.1387V26.5469Z" fill="#FF6939"/>
<path d="M20.4108 30.1283H3.86646V31.5935H20.4108V30.1283Z" fill="#FF6939"/>
</svg>
