<svg width="16" height="16" viewBox="0 0 16 16" fill="none" xmlns="http://www.w3.org/2000/svg">
<path d="M9.84714 4.62764C9.84709 4.26232 9.73872 3.90522 9.53572 3.6015C9.33273 3.29777 9.04423 3.06106 8.70671 2.92129C8.36918 2.78153 7.9978 2.74499 7.63951 2.81629C7.28122 2.88758 6.95211 3.06353 6.69382 3.32186C6.43552 3.5802 6.25962 3.90932 6.18837 4.26762C6.11712 4.62592 6.15371 4.99731 6.29352 5.33481C6.43333 5.67231 6.67008 5.96078 6.97384 6.16373C7.27759 6.36669 7.6347 6.47501 8.00002 6.47501C8.48976 6.47442 8.95928 6.27958 9.30556 5.93326C9.65184 5.58693 9.84661 5.11739 9.84714 4.62764ZM6.59039 4.62764C6.59044 4.34885 6.67316 4.07634 6.82808 3.84456C6.983 3.61278 7.20317 3.43214 7.46075 3.32549C7.71833 3.21884 8.00175 3.19096 8.27517 3.24538C8.5486 3.2998 8.79974 3.43407 8.99686 3.63122C9.19397 3.82837 9.3282 4.07954 9.38257 4.35298C9.43694 4.62641 9.40901 4.90982 9.30231 5.16739C9.19562 5.42495 9.01494 5.64508 8.78314 5.79996C8.55133 5.95485 8.2788 6.03751 8.00002 6.03751C7.62625 6.03708 7.26792 5.8884 7.00365 5.62408C6.73938 5.35976 6.59076 5.0014 6.59039 4.62764Z" fill="#524E4E"/>
<path d="M15.416 15.1335L13.6328 10.4585C13.6169 10.4171 13.5889 10.3815 13.5524 10.3564C13.516 10.3312 13.4727 10.3178 13.4284 10.3178H10.0534C10.074 10.2841 10.0945 10.2515 10.1151 10.2178C11.4138 8.06776 12.0673 6.18701 12.0579 4.62851C12.0581 3.55226 11.6307 2.52002 10.8698 1.75887C10.1089 0.997719 9.07682 0.570007 8.00057 0.569824C6.92432 0.569642 5.89208 0.997005 5.13093 1.7579C4.36978 2.51879 3.94207 3.55089 3.94189 4.62714C3.93251 6.18701 4.58601 8.06801 5.88464 10.2178C5.90526 10.2519 5.92576 10.2845 5.94639 10.3178H2.57139C2.52708 10.3178 2.48382 10.3312 2.44732 10.3564C2.41083 10.3815 2.38283 10.4171 2.36701 10.4585L0.584011 15.1335C0.571307 15.1666 0.566858 15.2023 0.571049 15.2376C0.575241 15.2728 0.587946 15.3065 0.608068 15.3357C0.628189 15.3649 0.655122 15.3888 0.686539 15.4053C0.717956 15.4217 0.752912 15.4303 0.788386 15.4303H15.2116C15.2471 15.4303 15.2821 15.4217 15.3135 15.4053C15.3449 15.3888 15.3718 15.3649 15.392 15.3357C15.4121 15.3065 15.4248 15.2728 15.429 15.2376C15.4332 15.2023 15.4287 15.1666 15.416 15.1335ZM4.37951 4.62751C4.37959 4.15206 4.47332 3.68128 4.65534 3.24205C4.83737 2.80283 5.10412 2.40375 5.44037 2.06761C5.77663 1.73148 6.17579 1.46486 6.61508 1.28299C7.05437 1.10112 7.52518 1.00755 8.00064 1.00764C8.47609 1.00772 8.94687 1.10145 9.38609 1.28347C9.82532 1.46549 10.2244 1.73225 10.5605 2.0685C10.8967 2.40475 11.1633 2.80392 11.3452 3.24321C11.527 3.6825 11.6206 4.15331 11.6205 4.62876C11.6393 7.73601 8.73426 11.5684 8.00001 12.4874C7.26576 11.5688 4.36064 7.73739 4.37951 4.62751ZM7.83339 12.9749C7.85392 12.999 7.87946 13.0184 7.90823 13.0317C7.937 13.045 7.96832 13.0519 8.00001 13.0519C8.03171 13.0519 8.06302 13.045 8.09179 13.0317C8.12056 13.0184 8.1461 12.999 8.16664 12.9749C8.74743 12.2674 9.28587 11.5261 9.77914 10.755H13.2775L13.5575 11.4894L6.72114 13.9208L4.28439 10.7546H6.22064C6.71397 11.5259 7.25249 12.2673 7.83339 12.9749ZM6.71351 14.3874H6.71476L10.7931 12.9374L12.375 14.9928H5.01251L6.71351 14.3874ZM2.72226 10.7546H3.73226L6.28751 14.0749L3.70714 14.9926H1.10589L2.72226 10.7546ZM12.9276 14.9928L11.2265 12.7825L13.714 11.8979L14.8944 14.9928H12.9276Z" fill="#524E4E"/>
</svg>
