<svg width="29" height="36" viewBox="0 0 29 36" fill="none" xmlns="http://www.w3.org/2000/svg">
<rect x="1" y="1" width="26" height="34" rx="3" stroke="#FF6939" stroke-width="2"/>
<rect x="4" y="4" width="2" height="2" rx="1" fill="#FF6939"/>
<rect x="8" y="4" width="2" height="2" rx="1" fill="#FF6939"/>
<rect x="12" y="4" width="2" height="2" rx="1" fill="#FF6939"/>
<rect y="8" width="28" height="2" fill="#FF6939"/>
<rect x="4" y="16" width="15" height="2" rx="1" fill="#FF6939"/>
<rect x="4" y="20" width="13" height="2" rx="1" fill="#FF6939"/>
<rect x="4" y="24" width="11" height="2" rx="1" fill="#FF6939"/>
<g clip-path="url(#clip0)">
<path d="M14.0491 28.1937L15.1416 24.9348L17.0878 26.5873L14.0491 28.1937ZM18.0828 25.8579L15.7001 23.8348L22.0781 16.3204L24.4635 18.346L18.0828 25.8579ZM25.8721 16.704L23.4693 14.6638C23.4747 14.6573 23.4801 14.6508 23.4855 14.6442C23.7005 14.3835 23.8956 14.157 23.9637 14.0932C23.9677 14.0899 23.9751 14.084 23.9857 14.076C24.0094 14.0582 24.0482 14.0306 24.1001 13.9992C24.2052 13.9355 24.3549 13.8616 24.5339 13.8166C24.8643 13.7334 25.3451 13.7315 25.9158 14.2171C26.489 14.7049 26.5647 15.1804 26.5363 15.5187C26.5209 15.7021 26.4722 15.861 26.4266 15.9745C26.404 16.0304 26.3832 16.0729 26.3695 16.099C26.364 16.1095 26.3597 16.1172 26.357 16.1218C26.3007 16.2039 26.1076 16.4342 25.888 16.6858C25.8827 16.6919 25.8774 16.698 25.8721 16.704ZM23.9602 14.096C23.9598 14.0963 23.9606 14.0957 23.9624 14.0942L23.9616 14.0948L23.9602 14.096ZM26.355 16.1255L26.3554 16.1247C26.3544 16.1263 26.3539 16.1272 26.3539 16.1272L26.354 16.1271L26.355 16.1255Z" stroke="#FF6939" stroke-width="1.2"/>
</g>
<defs>
<clipPath id="clip0">
<rect x="12" y="14.22" width="15" height="15" transform="rotate(-4.66543 12 14.22)" fill="white"/>
</clipPath>
</defs>
</svg>
