<svg width="16" height="16" viewBox="0 0 16 16" fill="none" xmlns="http://www.w3.org/2000/svg">
<path d="M0.487775 8.08256C0.487775 3.93737 3.86029 0.564893 8.00474 0.564893C12.1503 0.564893 15.5231 3.93759 15.5231 8.08256C15.5231 12.2279 12.1503 15.6004 8.00474 15.6004C3.86029 15.6004 0.487775 12.2279 0.487775 8.08256Z" stroke="#524E4E" stroke-width="0.6"/>
<path d="M4.0072 8.08734C4.0072 7.84383 3.80975 7.64673 3.56658 7.64673H2.32685C2.08368 7.64673 1.88623 7.84383 1.88623 8.08734C1.88623 8.33086 2.08368 8.52761 2.32685 8.52761H3.56658C3.80975 8.52761 4.0072 8.33086 4.0072 8.08734Z" fill="#524E4E"/>
<path d="M4.4378 5.40259C4.52202 5.4796 4.62839 5.51758 4.73477 5.51758C4.85398 5.51758 4.97301 5.46958 5.06004 5.37446C5.22426 5.19494 5.21143 4.91608 5.03191 4.75204L4.11675 3.91512C3.93776 3.75125 3.65872 3.76338 3.4945 3.9429C3.33028 4.12277 3.34312 4.40127 3.52264 4.56549L4.4378 5.40259Z" fill="#524E4E"/>
<path d="M11.0059 5.2359C11.1255 5.2359 11.2441 5.1879 11.3312 5.09278L12.1674 4.17744C12.3316 3.99793 12.3188 3.71942 12.1393 3.5552C11.9599 3.39168 11.6814 3.40382 11.517 3.58333L10.6812 4.4985C10.5169 4.67784 10.5298 4.95669 10.7089 5.12091C10.7937 5.1981 10.9001 5.2359 11.0059 5.2359Z" fill="#524E4E"/>
<path d="M4.69098 11.0514L3.85371 11.9659C3.68949 12.1452 3.70197 12.4239 3.88114 12.5881C3.96589 12.6653 4.07208 12.7038 4.17846 12.7038C4.29767 12.7038 4.41652 12.6558 4.50338 12.5604L5.34065 11.6462C5.50523 11.4669 5.49274 11.1882 5.31323 11.024C5.13424 10.8598 4.85573 10.8714 4.69098 11.0514Z" fill="#524E4E"/>
<path d="M11.5845 10.742C11.4056 10.5785 11.1267 10.5906 10.9626 10.7701C10.7984 10.9494 10.8113 11.2281 10.9904 11.3923L11.9059 12.2289C11.9902 12.3061 12.0965 12.3443 12.2029 12.3443C12.3221 12.3443 12.4412 12.2963 12.5282 12.2008C12.6921 12.0214 12.6796 11.7428 12.5001 11.5785L11.5845 10.742Z" fill="#524E4E"/>
<path d="M8.02919 12.0525C7.78603 12.0525 7.58893 12.2496 7.58893 12.4928V13.7513C7.58893 13.9948 7.78603 14.1919 8.02919 14.1919C8.27236 14.1919 8.46981 13.9948 8.46981 13.7513V12.4928C8.46981 12.2496 8.27236 12.0525 8.02919 12.0525Z" fill="#524E4E"/>
<path d="M13.684 7.64673H12.4447C12.2015 7.64673 12.0044 7.84383 12.0044 8.08734C12.0044 8.33086 12.2015 8.52761 12.4447 8.52761H13.684C13.9272 8.52761 14.1247 8.33086 14.1247 8.08734C14.1247 7.84383 13.9272 7.64673 13.684 7.64673Z" fill="#524E4E"/>
<path d="M11.0862 8.08728C11.0862 7.84377 10.8891 7.64667 10.646 7.64667H8.46981V2.41449C8.46981 2.17133 8.27236 1.97388 8.02919 1.97388C7.78603 1.97388 7.58893 2.17133 7.58893 2.41449V8.08728C7.58893 8.3308 7.78603 8.52755 8.02919 8.52755H10.646C10.8891 8.52755 11.0862 8.3308 11.0862 8.08728Z" fill="#524E4E"/>
</svg>
