<svg width="30" height="48" viewBox="0 0 30 48" fill="none" xmlns="http://www.w3.org/2000/svg">
<path fill-rule="evenodd" clip-rule="evenodd" d="M4.39411 4.39486C7.32352 1.46545 11.1604 0 14.9928 0C18.8372 0 22.674 1.46545 25.6035 4.39486C31.4623 10.2522 31.4623 19.7499 25.6035 25.6057C25.6035 25.6057 14.9928 36.0004 14.9928 48C14.9928 36.0004 4.39411 25.6057 4.39411 25.6057C-1.4647 19.7484 -1.4647 10.2507 4.39411 4.39486Z" fill="#676A6C"/>
<path d="M10.7108 13.4041H8.60141V20.4998H6.87289V13.4041H4.79868V11.9685H10.7108V13.4041ZM17.6834 20.4998H15.9666V16.8494H13.4237V20.4998H11.701V11.9685H13.4237V15.4197H15.9666V11.9685H17.6834V20.4998ZM25.0721 16.8962C25.0721 18.3064 24.6913 19.3318 23.9295 19.9724L25.1073 21.0271L24.0233 22.0232L22.453 20.5876L22.0018 20.6169C21.037 20.6169 20.2811 20.2908 19.7342 19.6384C19.1913 18.9822 18.9178 18.0759 18.9139 16.9197V15.5837C18.9139 14.4119 19.1854 13.4978 19.7284 12.8416C20.2713 12.1814 21.0252 11.8513 21.9901 11.8513C22.9315 11.8513 23.6756 12.1677 24.2225 12.8005C24.7694 13.4333 25.0526 14.322 25.0721 15.4666V16.8962ZM23.3436 15.572C23.3436 14.7947 23.2323 14.2205 23.0096 13.8494C22.787 13.4783 22.4471 13.2927 21.9901 13.2927C21.5331 13.2927 21.1952 13.4744 20.9764 13.8376C20.7577 14.197 20.6444 14.7458 20.6366 15.4841V16.8962C20.6366 17.6775 20.7479 18.2537 20.9706 18.6248C21.1971 18.9958 21.5409 19.1814 22.0018 19.1814C22.451 19.1814 22.785 18.9978 23.0038 18.6306C23.2264 18.2595 23.3397 17.6951 23.3436 16.9373V15.572Z" fill="white"/>
</svg>
